<?xml version="1.0" encoding="UTF-8"?>
<svg width="124" height="37" viewBox="0 0 124 37" fill="none" xmlns="http://www.w3.org/2000/svg">
<path fill-rule="evenodd" clip-rule="evenodd" d="M97.647 16.3046C97.8226 16.3087 104.264 16.3165 104.386 16.3212C104.595 16.3294 104.758 16.4282 104.892 16.5836C105.27 17.0212 105.196 17.6492 104.727 17.9733C104.604 18.0589 104.471 18.1166 104.318 18.1183C104.209 18.1193 100.051 18.121 98.0817 18.121H97.6608C97.644 18.2191 97.6191 18.2992 97.6184 18.3793C97.6143 18.8722 97.616 22.2969 97.616 23.5166C97.616 23.6153 97.6201 23.7141 97.6143 23.8122C97.5894 24.246 97.2767 24.577 96.8532 24.6232C96.4026 24.6714 96.0542 24.449 95.9296 24.0169C95.8928 23.8893 95.8814 23.7508 95.8804 23.6167C95.875 23.0376 95.8773 16.7055 95.8783 14.1186C95.8783 13.3225 96.0013 12.5493 96.2989 11.8079C96.9738 10.1249 98.5002 8.70739 100.202 8.28138C102.665 7.66528 104.745 8.33128 106.386 10.2967C107.277 11.3649 107.7 12.6138 107.702 14.0099C107.703 14.2907 107.612 14.5154 107.394 14.6861C107.12 14.9013 106.807 14.9427 106.493 14.8209C106.168 14.6943 106.015 14.4213 105.984 14.0724C105.953 13.7173 105.933 13.3589 105.866 13.0099C105.575 11.4841 104.139 10.0153 102.385 9.80483C100.352 9.56076 98.4628 10.7281 97.8249 12.6705C97.7094 13.0228 97.6288 13.384 97.6258 13.7557C97.6181 14.5439 97.6191 15.3328 97.6184 16.121C97.6184 16.1688 97.6329 16.2167 97.647 16.3046Z" fill="#5C5C5C"/>
<path fill-rule="evenodd" clip-rule="evenodd" d="M59.9169 14.3982C57.5963 14.3368 55.6995 16.3823 55.6945 18.644C55.6891 20.8474 57.4847 22.898 59.9105 22.9007C62.3123 22.9031 64.1069 20.8444 64.1133 18.6692C64.1201 16.3887 62.1984 14.3364 59.9169 14.3982ZM59.9149 24.6292C56.8415 24.7229 53.9592 22.0667 53.9619 18.6437C53.9643 15.3259 56.7711 12.6127 59.9132 12.6921C63.0715 12.6117 65.8528 15.3874 65.8477 18.6607C65.8423 22.0029 63.0068 24.7219 59.9149 24.6292Z" fill="#5C5C5C"/>
<path fill-rule="evenodd" clip-rule="evenodd" d="M80.2868 18.6529C80.306 16.2628 78.2883 14.3782 76.0792 14.385C73.8671 14.3911 71.8723 16.257 71.874 18.6607C71.8753 20.9754 73.7619 22.9075 76.1055 22.9014C78.4076 22.895 80.311 20.9604 80.2868 18.6529ZM76.1041 12.6921C79.3261 12.6198 82.109 15.4919 82.0062 18.6739C82.0874 21.8956 79.2594 24.7426 76.0438 24.6292C72.9071 24.6964 70.0716 21.9248 70.1572 18.6315C70.0857 15.4634 72.8471 12.6107 76.1041 12.6921Z" fill="#5C5C5C"/>
<path fill-rule="evenodd" clip-rule="evenodd" d="M121.033 18.5604C121.186 18.6673 121.297 18.7427 121.405 18.8218C122.815 19.851 123.643 21.2359 123.893 22.9702C123.93 23.2254 123.943 23.4841 123.964 23.7417C123.968 23.7893 123.961 23.8405 123.947 23.8863C123.78 24.4607 123.131 24.754 122.594 24.4206C122.349 24.2682 122.212 24.0459 122.213 23.7465C122.214 23.388 122.171 23.0343 122.088 22.685C121.721 21.1409 120.442 19.8645 118.901 19.5485C116.872 19.1327 115.113 20.1246 114.244 21.8218C113.963 22.3707 113.844 22.9549 113.806 23.5625C113.799 23.6609 113.8 23.7604 113.783 23.8571C113.716 24.2428 113.372 24.5442 112.993 24.5547C112.577 24.5663 112.256 24.3297 112.149 23.9332C112.099 23.754 112.075 23.5734 112.088 23.386C112.209 21.6171 112.96 20.1785 114.321 19.0611C114.527 18.8913 114.751 18.743 114.991 18.5675C114.935 18.5179 114.897 18.4762 114.851 18.4436C114.611 18.2729 114.36 18.1174 114.132 17.9338C112.747 16.8224 112.1 15.3556 112.081 13.5871C112.078 13.3098 112.166 13.08 112.368 12.896C112.625 12.6624 112.918 12.5766 113.249 12.7086C113.585 12.8427 113.786 13.0854 113.8 13.4615C113.813 13.8315 113.845 14.1988 113.928 14.5606C114.28 16.0844 115.648 17.4273 117.209 17.6815C118.316 17.8618 119.358 17.7107 120.294 17.0651C121.264 16.396 121.896 15.487 122.109 14.3094C122.155 14.0566 122.164 13.7955 122.17 13.5379C122.179 13.099 122.485 12.7239 122.907 12.6567C123.322 12.5912 123.725 12.8671 123.859 13.2928C123.955 13.5976 123.93 13.9048 123.889 14.2086C123.646 15.9802 122.787 17.3686 121.313 18.3679C121.233 18.4219 121.154 18.4769 121.033 18.5604Z" fill="#5C5C5C"/>
<path fill-rule="evenodd" clip-rule="evenodd" d="M50.6826 9.43794C51.0371 9.43794 51.3919 9.43659 51.7464 9.43862C51.8563 9.4393 51.9675 9.43964 52.0756 9.45627C52.4547 9.51432 52.7458 9.86259 52.7556 10.2604C52.765 10.6382 52.5039 11.0028 52.1467 11.0853C52.0052 11.1175 51.8556 11.1216 51.7097 11.123C51.2083 11.1274 50.7069 11.1291 50.2055 11.124C48.7734 11.1084 47.5217 11.5856 46.437 12.5174C45.5946 13.2411 44.9116 14.0918 44.5591 15.1594C43.9496 17.0056 44.1541 18.7538 45.2758 20.3635C45.7152 20.9938 46.2554 21.5274 46.8787 21.9742C47.833 22.6571 48.8937 23.0156 50.0684 23.0166C50.6065 23.0169 51.1446 23.0152 51.6827 23.018C51.8044 23.0186 51.928 23.0231 52.0473 23.0444C52.3796 23.1038 52.6043 23.3068 52.6902 23.629C52.7819 23.9722 52.7121 24.2902 52.4321 24.536C52.3088 24.6443 52.1656 24.7067 51.9998 24.7132C51.0466 24.7488 50.0923 24.8052 49.1417 24.685C48.1592 24.5604 47.2393 24.2393 46.3945 23.7162C45.2283 22.9942 44.2815 22.0461 43.5671 20.8696C42.8113 19.6255 42.4949 18.2663 42.5428 16.8128C42.6031 14.9706 43.2912 13.3939 44.5143 12.0422C45.2465 11.233 46.0845 10.5632 47.0759 10.0995C47.9176 9.70577 48.8007 9.48173 49.7291 9.45118C50.0465 9.441 50.3649 9.44948 50.6826 9.44948V9.43794Z" fill="#5C5C5C"/>
<path fill-rule="evenodd" clip-rule="evenodd" d="M67.0175 9.19503C67.0175 9.09659 67.0148 8.99781 67.0188 8.89937C67.0367 8.45639 67.3676 8.1037 67.7989 8.06535C68.1904 8.03004 68.6052 8.3274 68.709 8.72388C68.7336 8.81858 68.741 8.91838 68.7484 9.01614C68.7548 9.10202 68.7504 9.18858 68.7504 9.2748V23.5093C68.7504 23.6203 68.7548 23.7316 68.745 23.8416C68.7046 24.2934 68.3434 24.6077 67.8791 24.6308C67.3942 24.6546 67.0677 24.2265 67.0269 23.8725C67.0128 23.751 67.0178 23.6267 67.0178 23.5032C67.0175 21.1124 67.0175 11.5736 67.0175 9.19503Z" fill="#5C5C5C"/>
<path fill-rule="evenodd" clip-rule="evenodd" d="M83.0169 18.5591C83.0401 16.1263 84.577 13.9209 86.8413 13.0624C87.3943 12.8523 87.9651 12.7199 88.5568 12.707C89.1801 12.6938 89.8042 12.6968 90.4279 12.6924C90.6425 12.6907 90.838 12.7437 91.0091 12.8801C91.2986 13.1103 91.4165 13.4467 91.31 13.8028C91.2083 14.1436 90.9633 14.3296 90.6206 14.3856C90.5249 14.4012 90.4255 14.3968 90.3278 14.3971C89.851 14.3988 89.3739 14.3951 88.8968 14.4005C87.4101 14.4175 86.2786 15.0981 85.4379 16.3031C84.9274 17.0353 84.737 17.8653 84.7377 18.7489C84.7387 20.3015 84.738 21.8538 84.7377 23.4065C84.7377 23.5297 84.7418 23.6536 84.732 23.7758C84.6976 24.1974 84.3603 24.525 83.9381 24.5524C83.8896 24.5558 83.8404 24.5545 83.7915 24.5545C83.3141 24.5541 83.0138 24.2677 83.0155 23.771C83.0182 22.8348 83.0091 19.3599 83.0169 18.5591Z" fill="#5C5C5C"/>
<path fill-rule="evenodd" clip-rule="evenodd" d="M108.865 13.891C108.865 13.7926 108.871 13.6938 108.865 13.5954C108.84 13.2023 109.159 12.7752 109.651 12.7253C110.071 12.6829 110.488 13.0135 110.578 13.4562C110.595 13.54 110.598 13.6273 110.6 13.7131C110.604 13.836 110.601 13.9592 110.601 14.0825V23.4733C110.601 23.5718 110.604 23.6706 110.6 23.769C110.581 24.2551 110.241 24.6037 109.767 24.6275C109.302 24.6505 108.926 24.3209 108.873 23.8359C108.86 23.7137 108.866 23.5898 108.866 23.4665C108.865 21.8643 108.865 15.481 108.865 13.891Z" fill="#5C5C5C"/>
<path fill-rule="evenodd" clip-rule="evenodd" d="M94.2563 23.7551C94.2563 24.2653 93.7799 24.7362 93.1831 24.6112C92.8414 24.54 92.6382 24.2949 92.558 23.9571C92.5301 23.839 92.5284 23.7127 92.5284 23.5902C92.527 20.2999 92.5274 17.0099 92.5274 13.7197C92.5274 13.6704 92.5287 13.6212 92.5284 13.5717C92.5237 13.0343 92.9981 12.723 93.3698 12.7217C93.8088 12.7203 94.2129 13.0978 94.2503 13.5523C94.2597 13.6626 94.2553 13.774 94.2553 13.885C94.2553 15.4994 94.2563 23.6662 94.2563 23.7551Z" fill="#5C5C5C"/>
<path fill-rule="evenodd" clip-rule="evenodd" d="M108.867 10.1075C108.852 9.73306 109.171 9.21811 109.709 9.21777C110.21 9.21743 110.605 9.57895 110.598 10.0457C110.591 10.5179 110.194 10.9198 109.733 10.9201C109.249 10.9205 108.871 10.5664 108.867 10.1075Z" fill="#5C5C5C"/>
<path fill-rule="evenodd" clip-rule="evenodd" d="M93.3902 9.21982C93.8775 9.22186 94.2511 9.57251 94.2535 10.0308C94.2559 10.5199 93.8471 10.9323 93.3713 10.9201C92.8818 10.9076 92.5263 10.5518 92.5303 10.0861C92.5344 9.62614 92.9218 9.19436 93.3902 9.21982Z" fill="#5C5C5C"/>
<path fill-rule="evenodd" clip-rule="evenodd" d="M20.7505 3.11489C20.7505 4.64818 19.5166 5.8909 17.9949 5.8909C16.4729 5.8909 15.2393 4.64818 15.2393 3.11489C15.2393 1.58159 16.4729 0.338867 17.9949 0.338867C19.5166 0.338867 20.7505 1.58159 20.7505 3.11489Z" fill="#5C5C5C"/>
<path fill-rule="evenodd" clip-rule="evenodd" d="M28.44 5.36522C28.44 6.89852 27.2064 8.14124 25.6843 8.14124C24.1626 8.14124 22.9287 6.89852 22.9287 5.36522C22.9287 3.83193 24.1626 2.58887 25.6843 2.58887C27.2064 2.58887 28.44 3.83193 28.44 5.36522Z" fill="#5C5C5C"/>
<path fill-rule="evenodd" clip-rule="evenodd" d="M33.8326 11.0944C33.8326 12.6277 32.5986 13.8707 31.0769 13.8707C29.5549 13.8707 28.3213 12.6277 28.3213 11.0944C28.3213 9.56142 29.5549 8.31836 31.0769 8.31836C32.5986 8.31836 33.8326 9.56142 33.8326 11.0944Z" fill="#5C5C5C"/>
<path fill-rule="evenodd" clip-rule="evenodd" d="M35.7613 18.5879C35.7613 20.1212 34.5273 21.3639 33.0056 21.3639C31.4836 21.3639 30.25 20.1212 30.25 18.5879C30.25 17.0546 31.4836 15.8115 33.0056 15.8115C34.5273 15.8115 35.7613 17.0546 35.7613 18.5879Z" fill="#5C5C5C"/>
<path fill-rule="evenodd" clip-rule="evenodd" d="M33.8326 26.0807C33.8326 27.614 32.5986 28.8567 31.0769 28.8567C29.5549 28.8567 28.3213 27.614 28.3213 26.0807C28.3213 24.5474 29.5549 23.3047 31.0769 23.3047C32.5986 23.3047 33.8326 24.5474 33.8326 26.0807Z" fill="#5C5C5C"/>
<path fill-rule="evenodd" clip-rule="evenodd" d="M28.7359 31.8844C28.7359 33.4177 27.5023 34.6608 25.9802 34.6608C24.4585 34.6608 23.2246 33.4177 23.2246 31.8844C23.2246 30.3511 24.4585 29.1084 25.9802 29.1084C27.5023 29.1084 28.7359 30.3511 28.7359 31.8844Z" fill="#5C5C5C"/>
<path fill-rule="evenodd" clip-rule="evenodd" d="M20.6704 34.194C20.6704 35.7273 19.4365 36.97 17.9148 36.97C16.3928 36.97 15.1592 35.7273 15.1592 34.194C15.1592 32.6607 16.3928 31.418 17.9148 31.418C19.4365 31.418 20.6704 32.6607 20.6704 34.194Z" fill="#5C5C5C"/>
<path fill-rule="evenodd" clip-rule="evenodd" d="M12.9517 32.1777C12.9517 33.711 11.7181 34.9537 10.1961 34.9537C8.67436 34.9537 7.44043 33.711 7.44043 32.1777C7.44043 30.6444 8.67436 29.4014 10.1961 29.4014C11.7181 29.4014 12.9517 30.6444 12.9517 32.1777Z" fill="#5C5C5C"/>
<path fill-rule="evenodd" clip-rule="evenodd" d="M7.39114 26.4538C7.39114 27.987 6.15721 29.2298 4.63551 29.2298C3.11348 29.2298 1.87988 27.987 1.87988 26.4538C1.87988 24.9205 3.11348 23.6777 4.63551 23.6777C6.15721 23.6777 7.39114 24.9205 7.39114 26.4538Z" fill="#5C5C5C"/>
<path fill-rule="evenodd" clip-rule="evenodd" d="M5.51126 18.6901C5.51126 20.2234 4.27733 21.4661 2.75563 21.4661C1.2336 21.4661 0 20.2234 0 18.6901C0 17.1568 1.2336 15.9141 2.75563 15.9141C4.27733 15.9141 5.51126 17.1568 5.51126 18.6901Z" fill="#5C5C5C"/>
<path fill-rule="evenodd" clip-rule="evenodd" d="M7.39114 10.9264C7.39114 12.4597 6.15721 13.7028 4.63551 13.7028C3.11348 13.7028 1.87988 12.4597 1.87988 10.9264C1.87988 9.39312 3.11348 8.15039 4.63551 8.15039C6.15721 8.15039 7.39114 9.39312 7.39114 10.9264Z" fill="#5C5C5C"/>
<path fill-rule="evenodd" clip-rule="evenodd" d="M13.2642 5.36522C13.2642 6.89852 12.0303 8.14124 10.5086 8.14124C8.98653 8.14124 7.75293 6.89852 7.75293 5.36522C7.75293 3.83193 8.98653 2.58887 10.5086 2.58887C12.0303 2.58887 13.2642 3.83193 13.2642 5.36522Z" fill="#5C5C5C"/>
<path fill-rule="evenodd" clip-rule="evenodd" d="M19.6893 9.21998C19.6893 10.2139 18.8897 11.0194 17.9034 11.0194C16.9168 11.0194 16.1172 10.2139 16.1172 9.21998C16.1172 8.22641 16.9168 7.4209 17.9034 7.4209C18.8897 7.4209 19.6893 8.22641 19.6893 9.21998Z" fill="#5C5C5C"/>
<path fill-rule="evenodd" clip-rule="evenodd" d="M24.2469 10.5162C24.2469 11.5098 23.4473 12.3156 22.461 12.3156C21.4744 12.3156 20.6748 11.5098 20.6748 10.5162C20.6748 9.52231 21.4744 8.7168 22.461 8.7168C23.4473 8.7168 24.2469 9.52231 24.2469 10.5162Z" fill="#5C5C5C"/>
<path fill-rule="evenodd" clip-rule="evenodd" d="M27.5516 14.1734C27.5516 15.1674 26.752 15.9729 25.7654 15.9729C24.7791 15.9729 23.9795 15.1674 23.9795 14.1734C23.9795 13.1795 24.7791 12.374 25.7654 12.374C26.752 12.374 27.5516 13.1795 27.5516 14.1734Z" fill="#5C5C5C"/>
<path fill-rule="evenodd" clip-rule="evenodd" d="M28.9051 18.5875C28.9051 19.5811 28.1055 20.3866 27.1192 20.3866C26.1326 20.3866 25.333 19.5811 25.333 18.5875C25.333 17.5936 26.1326 16.7881 27.1192 16.7881C28.1055 16.7881 28.9051 17.5936 28.9051 18.5875Z" fill="#5C5C5C"/>
<path fill-rule="evenodd" clip-rule="evenodd" d="M27.7664 23.1041C27.7664 24.098 26.9668 24.9035 25.9805 24.9035C24.9939 24.9035 24.1943 24.098 24.1943 23.1041C24.1943 22.1102 24.9939 21.3047 25.9805 21.3047C26.9668 21.3047 27.7664 22.1102 27.7664 23.1041Z" fill="#5C5C5C"/>
<path fill-rule="evenodd" clip-rule="evenodd" d="M24.3986 26.6354C24.3986 27.6293 23.5986 28.4348 22.6124 28.4348C21.6261 28.4348 20.8262 27.6293 20.8262 26.6354C20.8262 25.6415 21.6261 24.8359 22.6124 24.8359C23.5986 24.8359 24.3986 25.6415 24.3986 26.6354Z" fill="#5C5C5C"/>
<path fill-rule="evenodd" clip-rule="evenodd" d="M19.7732 28.0123C19.7732 29.0062 18.9736 29.8117 17.987 29.8117C17.0008 29.8117 16.2012 29.0062 16.2012 28.0123C16.2012 27.0184 17.0008 26.2129 17.987 26.2129C18.9736 26.2129 19.7732 27.0184 19.7732 28.0123Z" fill="#5C5C5C"/>
<path fill-rule="evenodd" clip-rule="evenodd" d="M15.0096 26.7376C15.0096 27.7315 14.21 28.537 13.2237 28.537C12.2371 28.537 11.4375 27.7315 11.4375 26.7376C11.4375 25.744 12.2371 24.9385 13.2237 24.9385C14.21 24.9385 15.0096 25.744 15.0096 26.7376Z" fill="#5C5C5C"/>
<path fill-rule="evenodd" clip-rule="evenodd" d="M11.7332 23.2066C11.7332 24.2002 10.9336 25.0057 9.94734 25.0057C8.96073 25.0057 8.16113 24.2002 8.16113 23.2066C8.16113 22.2127 8.96073 21.4072 9.94734 21.4072C10.9336 21.4072 11.7332 22.2127 11.7332 23.2066Z" fill="#5C5C5C"/>
<path fill-rule="evenodd" clip-rule="evenodd" d="M10.5994 18.5875C10.5994 19.5811 9.79982 20.3866 8.81355 20.3866C7.82694 20.3866 7.02734 19.5811 7.02734 18.5875C7.02734 17.5936 7.82694 16.7881 8.81355 16.7881C9.79982 16.7881 10.5994 17.5936 10.5994 18.5875Z" fill="#5C5C5C"/>
<path fill-rule="evenodd" clip-rule="evenodd" d="M11.7332 13.9684C11.7332 14.9623 10.9336 15.7678 9.94734 15.7678C8.96073 15.7678 8.16113 14.9623 8.16113 13.9684C8.16113 12.9745 8.96073 12.1689 9.94734 12.1689C10.9336 12.1689 11.7332 12.9745 11.7332 13.9684Z" fill="#5C5C5C"/>
<path fill-rule="evenodd" clip-rule="evenodd" d="M15.0096 10.5162C15.0096 11.5098 14.21 12.3156 13.2237 12.3156C12.2371 12.3156 11.4375 11.5098 11.4375 10.5162C11.4375 9.52231 12.2371 8.7168 13.2237 8.7168C14.21 8.7168 15.0096 9.52231 15.0096 10.5162Z" fill="#5C5C5C"/>
</svg>
