<?xml version="1.0" encoding="utf-8"?>
<!-- Generator: Adobe Illustrator 26.2.1, SVG Export Plug-In . SVG Version: 6.00 Build 0)  -->
<svg version="1.1" id="Layer_1" xmlns="http://www.w3.org/2000/svg" xmlns:xlink="http://www.w3.org/1999/xlink" x="0px" y="0px"
	 width="151.3px" height="41px" viewBox="0 0 151.3 41" style="enable-background:new 0 0 151.3 41;" xml:space="preserve">
<g>
	<g>
		<path d="M30.9,3.8l-0.3,0.3c-0.6,0.5-1.4,0.7-2.1,0.4l-2.2-0.9c-0.7-0.3-1.2-1-1.2-1.8l0-0.5c0-0.8-0.7-1.4-1.4-1.4h-6.1
			c-0.8,0-1.4,0.6-1.4,1.4l0,0.5c0,0.8-0.5,1.5-1.2,1.8l-2.2,0.9c-0.7,0.3-1.6,0.1-2.1-0.4l-0.3-0.3c-0.6-0.5-1.4-0.5-2,0L3.9,8.1
			c-0.5,0.5-0.6,1.4,0,2l0.3,0.3c0.5,0.6,0.7,1.4,0.4,2.1l-0.9,2.2c-0.3,0.7-1,1.2-1.8,1.2l-0.5,0c-0.8,0-1.4,0.7-1.4,1.4v6.1
			c0,0.8,0.6,1.4,1.4,1.4l0.5,0c0.8,0,1.5,0.5,1.8,1.2l0.9,2.2c0.3,0.7,0.1,1.6-0.4,2.1l-0.3,0.3c-0.5,0.6-0.5,1.4,0,2l4.3,4.3
			c0.5,0.5,1.4,0.6,2,0l0.3-0.3c0.6-0.5,1.4-0.7,2.1-0.4l2.2,0.9c0.7,0.3,1.2,1,1.2,1.8l0,0.5c0,0.8,0.7,1.4,1.4,1.4h6.1
			c0.8,0,1.4-0.6,1.4-1.4l0-0.5c0-0.8,0.5-1.5,1.2-1.8l2.2-0.9c0.7-0.3,1.6-0.1,2.1,0.4l0.3,0.3c0.6,0.5,1.4,0.5,2,0l1.4-1.4
			l-7.8-7.8c-1-1-3.3-3.3-6.3-0.3c-0.9,0.9-1.5,2.1-2.4,3c-2.1,2.1-4.6,1.1-5.6-0.9c-0.6-1.2-0.4-1.3-1-2.4
			c-0.7-1.1-1.9-1.9-2.3-3.3c-0.3-1.4,0.4-1.8,0.4-2.5c0-0.7-0.7-1.5-0.5-2.5c0.1-0.8,0.7-1.3,0.8-1.7c0.1-0.4,0.1-0.7,0.2-1.3
			c0.4-1.8,2.1-2.7,3.6-1.7c1,0.7,3.2,3.1,3.5,2.8c0.3-0.3-2.1-2.5-2.8-3.5c-1-1.5-0.1-3.3,1.7-3.6c0.6-0.1,1-0.1,1.3-0.2
			c0.4-0.2,0.8-0.7,1.7-0.8c1-0.2,1.9,0.5,2.5,0.5c0.7,0,1.2-0.7,2.5-0.4c1.4,0.3,2.2,1.6,3.3,2.3c1.1,0.7,1.1,0.5,2.4,1
			c2,1,3.1,3.5,0.9,5.6c-0.9,0.9-2.1,1.4-3,2.4c-3,3-0.6,5.3,0.3,6.3l7.8,7.8l1.4-1.4c0.5-0.5,0.6-1.4,0-2l-0.3-0.3
			c-0.5-0.6-0.7-1.4-0.4-2.1l0.9-2.2c0.3-0.7,1-1.2,1.8-1.2l0.5,0c0.8,0,1.4-0.7,1.4-1.4v-6.1c0-0.8-0.6-1.4-1.4-1.4l-0.5,0
			c-0.8,0-1.5-0.5-1.8-1.2l-0.9-2.2c-0.3-0.7-0.1-1.6,0.4-2.1l0.3-0.3c0.5-0.6,0.5-1.4,0-2l-4.3-4.3C32.3,3.3,31.4,3.3,30.9,3.8z"/>
	</g>
	<g>
		<path d="M49.4,11.4c0-4.1,3.1-6.9,7.1-6.9c2.5,0,4.3,1.2,5.4,2.6l-2.1,1.3c-0.7-1-1.9-1.6-3.3-1.6c-2.6,0-4.5,1.9-4.5,4.6
			c0,2.6,1.9,4.6,4.5,4.6c1.4,0,2.4-0.6,3-1.1v-1.9H56v-2.2h6.2v5.1c-1.4,1.5-3.3,2.4-5.6,2.4C52.5,18.3,49.4,15.5,49.4,11.4z"/>
		<rect x="65" y="4.8" width="2.6" height="13.2"/>
		<polygon points="80.3,18 73.5,8.8 73.5,18 70.9,18 70.9,4.8 73.7,4.8 80.4,13.7 80.4,4.8 83,4.8 83,18 		"/>
		<polygon points="94.5,18 90,12.5 88.9,13.8 88.9,18 86.2,18 86.2,4.8 88.9,4.8 88.9,10.8 94.1,4.8 97.3,4.8 91.7,11 97.7,18 		"/>
		<path d="M97.7,11.4c0-4.1,3.1-6.9,7.1-6.9c2.5,0,4.3,1.2,5.4,2.6l-2.1,1.3c-0.7-1-1.9-1.6-3.3-1.6c-2.6,0-4.5,1.9-4.5,4.6
			c0,2.6,1.9,4.6,4.5,4.6c1.4,0,2.4-0.6,3-1.1v-1.9h-3.6v-2.2h6.2v5.1c-1.4,1.5-3.3,2.4-5.6,2.4C100.9,18.3,97.7,15.5,97.7,11.4z"/>
		<path d="M123.9,11.4c0-2.6-1.7-4.6-4.3-4.6c-2.6,0-4.3,2-4.3,4.6c0,2.6,1.7,4.6,4.3,4.6C122.2,16,123.9,14,123.9,11.4z
			 M112.6,11.4c0-3.9,2.8-6.9,7-6.9s7,2.9,7,6.9s-2.8,6.9-7,6.9C115.4,18.3,112.6,15.3,112.6,11.4z"/>
		<path d="M58.8,32.5c0-1.3-0.9-2.5-2.8-2.5h-4.4v5H56C57.8,35,58.8,34.1,58.8,32.5z M58.5,26.5c0-1.4-0.9-2.3-2.6-2.3h-4.3v4.7h4.3
			C57.6,28.9,58.5,27.8,58.5,26.5z M50.3,36.2V23h5.7c2.3,0,3.9,1.3,3.9,3.4c0,1.6-1.1,2.7-2.3,3c1.4,0.4,2.5,1.7,2.5,3.2
			c0,2.2-1.5,3.6-4,3.6L50.3,36.2L50.3,36.2z"/>
		<rect x="63.3" y="23" width="1.3" height="13.2"/>
		<path d="M79.9,29.6c0-3.3-2.1-5.7-5.3-5.7c-3.3,0-5.3,2.4-5.3,5.7c0,3.2,2.1,5.7,5.3,5.7C77.8,35.3,79.9,32.9,79.9,29.6z
			 M67.9,29.6c0-3.9,2.6-6.9,6.7-6.9c4.1,0,6.7,3,6.7,6.9c0,3.8-2.6,6.9-6.7,6.9C70.5,36.5,67.9,33.5,67.9,29.6z"/>
		<polygon points="94.1,36.2 90.8,25.1 87.5,36.2 86.1,36.2 82.2,23 83.6,23 86.9,34.3 90.2,23 91.4,23 94.7,34.3 98,23 99.4,23 
			95.5,36.2 		"/>
		<path d="M112.4,29.6c0-3.3-2.1-5.7-5.3-5.7c-3.3,0-5.3,2.4-5.3,5.7c0,3.2,2.1,5.7,5.3,5.7C110.3,35.3,112.4,32.9,112.4,29.6z
			 M100.4,29.6c0-3.9,2.6-6.9,6.7-6.9c4.1,0,6.7,3,6.7,6.9c0,3.8-2.6,6.9-6.7,6.9C103,36.5,100.4,33.5,100.4,29.6z"/>
		<path d="M125.1,26.9c0-1.6-1.1-2.7-2.9-2.7h-3.8v5.5h3.8C124.1,29.7,125.1,28.5,125.1,26.9z M125,36.2l-3.8-5.4h-2.9v5.4H117V23
			h5.2c2.7,0,4.2,1.7,4.2,3.9c0,2.2-1.5,3.8-3.8,3.9l4,5.4L125,36.2L125,36.2z"/>
		<polygon points="138.2,36.2 132.6,30.1 131.1,31.6 131.1,36.2 129.8,36.2 129.8,23 131.1,23 131.1,30.1 137.6,23 139.3,23 
			133.4,29.3 139.9,36.2 		"/>
		<path d="M141.3,34.4l0.8-0.9c0.8,1,2.4,1.9,4.3,1.9c2.6,0,3.6-1.3,3.6-2.6c0-3.8-8.3-1.7-8.3-6.4c0-2.2,2-3.6,4.6-3.6
			c2.1,0,3.6,0.7,4.7,1.9l-0.8,0.9c-1-1.2-2.4-1.7-4-1.7c-1.8,0-3.2,1-3.2,2.4c0,3.3,8.3,1.4,8.3,6.4c0,2.1-1.5,3.8-5,3.8
			C144.1,36.5,142.3,35.6,141.3,34.4z"/>
	</g>
</g>
</svg>
