<svg version="1.1" viewBox="0.0 0.0 694.9107611548557 100.0" fill="none" stroke="none" stroke-linecap="square" stroke-miterlimit="10" xmlns:xlink="http://www.w3.org/1999/xlink" xmlns="http://www.w3.org/2000/svg"><clipPath id="p.0"><path d="m0 0l694.91077 0l0 100.0l-694.91077 0l0 -100.0z" clip-rule="nonzero"/></clipPath><g clip-path="url(#p.0)"><path fill="#000000" fill-opacity="0.0" d="m0 0l694.91077 0l0 100.0l-694.91077 0z" fill-rule="evenodd"/><path fill="#000000" fill-opacity="0.0" d="m0.9107612 -1.0944881l700.0 0l0 100.0l-700.0 0z" fill-rule="evenodd"/><path fill="#38761d" d="m38.207638 80.79801q-5.203125 0 -9.921877 -1.625q-4.71875 -1.625 -8.21875 -4.546875q-3.484375 -2.9375 -5.109375 -6.765625q-0.8125 -1.703125 0.03125 -3.15625q0.859375 -1.46875 2.890625 -1.875q1.46875 -0.328125 2.890625 0.453125q1.421875 0.765625 2.15625 2.3125q0.96875 2.03125 3.203125 3.734375q2.25 1.703125 5.421875 2.765625q3.171877 1.0625 6.656252 1.0625q3.90625 0 7.203125 -1.21875q3.296875 -1.21875 5.328125 -3.53125q2.03125 -2.328125 2.03125 -5.75q0 -4.3125 -3.375 -7.71875q-3.375 -3.421875 -11.09375 -4.234375q-10.093752 -0.96875 -15.875002 -5.921875q-5.765625 -4.96875 -5.765625 -12.296875q0 -5.359373 3.0 -9.093748q3.015625 -3.75 8.171875 -5.703125q5.171877 -1.953125 11.515627 -1.953125q4.96875 0 8.65625 1.390625q3.703125 1.375 6.46875 3.8125q2.765625 2.4375 4.796875 5.78125q1.140625 1.78125 0.9375 3.375q-0.203125 1.578125 -1.578125 2.468748q-1.546875 0.984375 -3.34375 0.421875q-1.78125 -0.578125 -2.671875 -2.124998q-1.3125 -2.359375 -3.1875 -3.984375q-1.859375 -1.625 -4.390625 -2.5625q-2.515625 -0.9375 -5.921875 -0.9375q-6.03125 -0.078125 -10.093752 2.25q-4.0625 2.3125 -4.0625 7.109373q0 2.4375 1.25 4.671875q1.265625 2.234375 4.640625 3.875q3.375002 1.625 9.718752 2.265625q9.6875 0.984375 15.09375 5.90625q5.40625 4.90625 5.40625 12.96875q0 4.625 -1.921875 8.046875q-1.90625 3.421875 -5.125 5.734375q-3.203125 2.3125 -7.3125 3.453125q-4.109375 1.140625 -8.5 1.140625zm52.373135 -0.8125q-1.703125 0 -2.921875 -1.21875q-1.21875 -1.21875 -1.21875 -3.015625l0 -18.9375l-21.71875 -33.765625q-1.0468712 -1.703125 -0.8124962 -3.203125q0.24999619 -1.5 1.4218712 -2.4375q1.1875 -0.9375 2.734375 -0.9375q1.375 0 2.1875 0.609375q0.8125 0.609375 1.546875 1.75l20.65625 32.765625l-3.25 0l20.984375 -33.09375q0.65625 -0.96875 1.546875 -1.5q0.890625 -0.53125 2.1875 -0.53125q1.46875 0 2.4375 1.015625q0.984375 1.015625 1.140625 2.53125q0.171875 1.5 -0.8125 3.03125l-21.875 33.765625l0 18.9375q0 1.796875 -1.21875 3.015625q-1.21875 1.21875 -3.015625 1.21875zm39.614876 0q-1.796875 0 -2.9687576 -1.21875q-1.171875 -1.21875 -1.171875 -3.015625l0 -55.046875q0 -1.875 1.171875 -3.046875q1.1718826 -1.1875 2.9687576 -1.1875q1.953125 0 3.25 1.546875l35.46875 47.171875l0 -44.484375q0 -1.875 1.21875 -3.046875q1.21875 -1.1875 3.0 -1.1875q1.875 0 3.015625 1.1875q1.140625 1.171875 1.140625 3.046875l0 55.046875q0 1.796875 -1.140625 3.015625q-1.140625 1.21875 -3.015625 1.21875q-0.8125 0 -1.75 -0.359375q-0.9375 -0.375 -1.5 -1.109375l-35.453125 -47.171875l0 44.40625q0 1.796875 -1.1875 3.015625q-1.171875 1.21875 -3.046875 1.21875zm67.58049 0q-1.78125 0 -3.0 -1.21875q-1.21875 -1.21875 -1.21875 -3.015625l0 -55.046875q0 -1.875 1.21875 -3.046875q1.21875 -1.1875 3.0 -1.1875l19.4375 0q5.53125 0 9.71875 2.15625q4.1875 2.15625 6.578125 5.984375q2.40625 3.8125 2.40625 8.781248q0 3.984375 -2.15625 7.203125q-2.15625 3.203125 -5.890625 5.0625q5.375 1.3125 8.625 5.140625q3.25 3.8125 3.25 10.0q0 5.609375 -2.640625 9.921875q-2.640625 4.296875 -7.359375 6.78125q-4.71875 2.484375 -10.828125 2.484375l-21.140625 0zm4.234375 -7.8125l16.90625 0q3.75 0 6.59375 -1.296875q2.84375 -1.296875 4.46875 -3.8125q1.625 -2.53125 1.625 -6.265625q0 -3.5 -1.625 -5.78125q-1.625 -2.28125 -4.46875 -3.453125q-2.84375 -1.1875 -6.59375 -1.1875l-16.90625 0l0 21.796875zm0 -29.59375l15.203125 0q4.640625 0 7.609375 -2.28125q2.96875 -2.28125 2.96875 -6.90625q0 -4.640623 -2.96875 -6.874998q-2.96875 -2.234375 -7.609375 -2.234375l-15.203125 0l0 18.296873zm54.565872 37.40625q-1.7812347 0 -2.9999847 -1.21875q-1.21875 -1.21875 -1.21875 -3.015625l0 -55.046875q0 -1.875 1.21875 -3.046875q1.21875 -1.1875 2.9999847 -1.1875q1.8750305 0 3.0469055 1.1875q1.1875 1.171875 1.1875 3.046875l0 55.046875q0 1.796875 -1.1875 3.015625q-1.171875 1.21875 -3.0469055 1.21875zm49.86441 0.8125q-7.171875 0 -13.109375 -2.390625q-5.921875 -2.40625 -10.203125 -6.75q-4.265625 -4.359375 -6.625 -10.328125q-2.359375 -5.984375 -2.359375 -13.140625q0 -7.15625 2.359375 -13.09375q2.359375 -5.937498 6.625 -10.281248q4.28125 -4.359375 10.203125 -6.75q5.9375 -2.40625 13.109375 -2.40625q7.15625 0 13.046875 2.40625q5.890625 2.390625 10.203125 6.75q4.3125 4.34375 6.671875 10.281248q2.359375 5.9375 2.359375 13.09375q0 7.15625 -2.359375 13.140625q-2.359375 5.96875 -6.671875 10.328125q-4.3125 4.34375 -10.203125 6.75q-5.890625 2.390625 -13.046875 2.390625zm0 -7.640625q5.28125 0 9.703125 -1.90625q4.4375 -1.921875 7.6875 -5.296875q3.265625 -3.375 5.0 -7.921875q1.75 -4.5625 1.75 -9.84375q0 -5.28125 -1.75 -9.828125q-1.734375 -4.5625 -5.0 -7.937498q-3.25 -3.375 -7.6875 -5.25q-4.421875 -1.875 -9.703125 -1.875q-5.296875 0 -9.734375 1.875q-4.421875 1.875 -7.640625 5.25q-3.203125 3.374998 -5.0 7.937498q-1.78125 4.546875 -1.78125 9.828125q0 5.28125 1.78125 9.84375q1.796875 4.546875 5.0 7.921875q3.21875 3.375 7.640625 5.296875q4.4375 1.90625 9.734375 1.90625z" fill-rule="nonzero"/><path fill="#6aa84f" d="m389.98465 77.46989q-1.921875 0.8125 -3.875 1.453125q-1.9375 0.640625 -4.03125 1.09375q-2.078125 0.46875 -4.390625 0.703125q-2.296875 0.25 -4.9375 0.25q-5.609375 0 -10.328125 -1.203125q-4.703125 -1.203125 -8.109375 -3.609375q-3.390625 -2.421875 -5.296875 -6.03125q-1.890625 -3.625 -1.890625 -8.453125q0 -4.828125 1.890625 -8.4375q1.90625 -3.625 5.296875 -6.03125q3.40625 -2.421875 8.109375 -3.625q4.71875 -1.203125 10.328125 -1.203125q2.640625 0 4.9375 0.25q2.3125 0.234375 4.390625 0.703125q2.09375 0.46875 4.03125 1.109375q1.953125 0.640625 3.875 1.4375l0 8.921875q-1.515625 -0.828125 -3.203125 -1.640625q-1.671875 -0.8125 -3.703125 -1.46875q-2.03125 -0.65625 -4.46875 -1.0625q-2.421875 -0.421875 -5.46875 -0.421875q-4.671875 0 -7.75 0.96875q-3.078125 0.953125 -4.921875 2.5625q-1.84375 1.59375 -2.59375 3.671875q-0.734375 2.0625 -0.734375 4.265625q0 1.46875 0.3125 2.90625q0.328125 1.421875 1.0625 2.6875q0.75 1.265625 1.953125 2.34375q1.203125 1.0625 2.984375 1.84375q1.796875 0.765625 4.1875 1.203125q2.390625 0.4375 5.5 0.4375q3.046875 0 5.46875 -0.375q2.4375 -0.390625 4.46875 -1.03125q2.03125 -0.640625 3.703125 -1.453125q1.6875 -0.8125 3.203125 -1.671875l0 8.90625l0 0zm38.968414 -4.421875l-20.4375 0l-3.453125 6.9375l-11.046875 0l19.1875 -36.671875l11.046875 0l19.1875 36.671875l-11.046875 0l-3.4375 -6.9375zm-16.890625 -7.15625l13.390625 0l-6.671875 -13.5l-6.71875 13.5zm47.287354 14.09375l-9.90625 0l0 -36.671875l24.828125 0q4.0 0 6.78125 0.828125q2.796875 0.828125 4.546875 2.359375q1.75 1.515625 2.53125 3.671875q0.78125 2.140625 0.78125 4.78125q0 2.3125 -0.65625 4.0625q-0.640625 1.734375 -1.75 2.96875q-1.109375 1.234375 -2.578125 2.09375q-1.46875 0.859375 -3.09375 1.421875l12.0 14.484375l-11.578125 0l-11.09375 -13.5l-10.8125 0l0 13.5zm19.5625 -25.09375q0 -1.0625 -0.28125 -1.796875q-0.28125 -0.75 -0.984375 -1.21875q-0.6875 -0.46875 -1.84375 -0.6875q-1.15625 -0.21875 -2.890625 -0.21875l-13.5625 0l0 7.859375l13.5625 0q1.734375 0 2.890625 -0.21875q1.15625 -0.21875 1.84375 -0.6875q0.703125 -0.46875 0.984375 -1.203125q0.28125 -0.75 0.28125 -1.828125zm21.024231 25.09375l0 -36.671875l37.125 0l0 7.828125l-26.953125 0l0 6.046875l25.5625 0l0 7.828125l-25.5625 0l0 7.15625l27.328125 0l0 7.8125l-37.5 0zm47.050293 0l0 -36.671875l37.125 0l0 7.828125l-26.953125 0l0 6.046875l25.5625 0l0 7.828125l-25.5625 0l0 7.15625l27.328125 0l0 7.8125l-37.5 0zm56.956482 0l-9.90625 0l0 -36.671875l24.828125 0q4.0 0 6.78125 0.828125q2.796875 0.828125 4.546875 2.359375q1.75 1.515625 2.53125 3.671875q0.78125 2.140625 0.78125 4.78125q0 2.3125 -0.65625 4.0625q-0.640625 1.734375 -1.75 2.96875q-1.109375 1.234375 -2.578125 2.09375q-1.46875 0.859375 -3.09375 1.421875l12.0 14.484375l-11.578125 0l-11.09375 -13.5l-10.8125 0l0 13.5zm19.5625 -25.09375q0 -1.0625 -0.28125 -1.796875q-0.28125 -0.75 -0.984375 -1.21875q-0.6875 -0.46875 -1.84375 -0.6875q-1.15625 -0.21875 -2.890625 -0.21875l-13.5625 0l0 7.859375l13.5625 0q1.734375 0 2.890625 -0.21875q1.15625 -0.21875 1.84375 -0.6875q0.703125 -0.46875 0.984375 -1.203125q0.28125 -0.75 0.28125 -1.828125zm54.821106 -1.25q-1.046875 -0.5 -2.765625 -1.140625q-1.703125 -0.640625 -3.859375 -1.21875q-2.15625 -0.578125 -4.703125 -0.953125q-2.53125 -0.390625 -5.203125 -0.390625q-2.125 0 -3.640625 0.140625q-1.5 0.125 -2.53125 0.34375q-1.03125 0.203125 -1.640625 0.484375q-0.59375 0.28125 -0.921875 0.578125q-0.3125 0.296875 -0.40625 0.59375q-0.09375 0.28125 -0.09375 0.53125q0 0.796875 0.796875 1.40625q0.8125 0.59375 2.1875 1.0625q1.390625 0.453125 3.234375 0.875q1.84375 0.40625 3.90625 0.859375q2.078125 0.4375 4.28125 0.953125q2.203125 0.515625 4.265625 1.21875q2.0625 0.6875 3.90625 1.609375q1.84375 0.921875 3.234375 2.15625q1.390625 1.21875 2.1875 2.828125q0.796875 1.59375 0.796875 3.65625q0 2.640625 -0.9375 4.53125q-0.921875 1.890625 -2.484375 3.203125q-1.5625 1.3125 -3.625 2.09375q-2.046875 0.78125 -4.3125 1.203125q-2.25 0.4375 -4.5625 0.5625q-2.296875 0.140625 -4.390625 0.140625q-5.4375 0 -10.078125 -0.890625q-4.625 -0.890625 -8.171875 -2.234375l0 -8.75q3.65625 2.03125 8.34375 3.1875q4.6875 1.140625 10.015625 1.140625q3.15625 0 5.140625 -0.328125q1.984375 -0.34375 3.109375 -0.859375q1.125 -0.515625 1.515625 -1.125q0.40625 -0.625 0.40625 -1.1875q0 -0.875 -0.796875 -1.53125q-0.796875 -0.65625 -2.1875 -1.140625q-1.390625 -0.5 -3.234375 -0.90625q-1.84375 -0.421875 -3.90625 -0.828125q-2.0625 -0.421875 -4.265625 -0.90625q-2.1875 -0.484375 -4.25 -1.125q-2.0625 -0.65625 -3.90625 -1.515625q-1.84375 -0.875 -3.234375 -2.0625q-1.390625 -1.1875 -2.1875 -2.75q-0.796875 -1.5625 -0.796875 -3.625q0 -2.421875 0.84375 -4.1875q0.859375 -1.765625 2.3125 -3.0q1.453125 -1.234375 3.359375 -2.0q1.921875 -0.78125 4.015625 -1.203125q2.109375 -0.4375 4.265625 -0.59375q2.171875 -0.171875 4.125 -0.171875q2.125 0 4.375 0.21875q2.265625 0.21875 4.453125 0.609375q2.1875 0.375 4.234375 0.890625q2.046875 0.5 3.78125 1.0625l0 8.484375z" fill-rule="nonzero"/></g></svg>