<svg version="1.1" viewBox="0.0 0.0 871.1102362204724 100.0" fill="none" stroke="none" stroke-linecap="square" stroke-miterlimit="10" xmlns:xlink="http://www.w3.org/1999/xlink" xmlns="http://www.w3.org/2000/svg"><clipPath id="p.0"><path d="m0 0l871.1102 0l0 100.0l-871.1102 0l0 -100.0z" clip-rule="nonzero"/></clipPath><g clip-path="url(#p.0)"><path fill="#000000" fill-opacity="0.0" d="m0 0l871.1102 0l0 100.0l-871.1102 0z" fill-rule="evenodd"/><path fill="#000000" fill-opacity="0.0" d="m-18.086615 -3.776903l903.65356 0l0 80.09449l-903.65356 0z" fill-rule="evenodd"/><path fill="#3c78d8" d="m-4.5440116 -0.7769029l305.49713 0l0 99.19999l-305.49713 0l0 -99.19999z" fill-rule="nonzero"/><path fill="#999999" d="m300.95312 -0.7769029l242.0998 0l0 99.19999l-242.0998 0l0 -99.19999z" fill-rule="nonzero"/><path fill="#f6b26b" d="m543.0529 -0.7769029l328.97144 0l0 99.19999l-328.97144 0l0 -99.19999z" fill-rule="nonzero"/><path fill="#000000" fill-opacity="0.0" d="m-4.5440116 3.9445937l305.49713 0l0 95.302536l-305.49713 0l0 -95.302536z" fill-rule="nonzero"/><path fill="#f6b26b" d="m23.221613 70.72372q0 4.3125 -1.78125 6.09375q-1.765625 1.765625 -6.0625 1.765625l-10.078125 0q-2.40625 0 -3.4375 -1.1875q-1.03125 -1.203125 -1.53125 -3.609375l12.40625 0q2.5625 0 3.21875 -1.0625q0.65625 -1.078125 0.65625 -3.640625l0 -13.390625q0 -2.5625 -0.703125 -3.640625q-0.703125 -1.078125 -3.515625 -1.078125l-4.203125 0q-4.2968745 0 -6.0781245 -1.765625q-1.78125 -1.78125 -1.78125 -6.078125l0 -14.546877q0 -4.3125 1.78125 -6.078125q1.78125 -1.78125 6.0781245 -1.78125l9.828125 0q2.40625 0 3.4375 1.203125q1.03125 1.1875 1.53125 3.59375l-12.15625 0q-2.5625 0 -3.2343745 1.078125q-0.65625 1.0625 -0.65625 3.625l0 11.250002q0 2.5625 0.65625 3.640625q0.6718745 1.0625 3.2343745 1.0625l4.546875 0q4.296875 0 6.0625 1.78125q1.78125 1.78125 1.78125 6.078125l0 16.6875zm12.075579 -50.0l7.1875 18.437502l3.140625 9.75l0.5 0l3.0625 -9.75l6.109375 -16.203127q0.421875 -1.25 1.0 -1.734375q0.578125 -0.5 1.984375 -0.5l3.71875 0l-13.234375 33.5625l0 21.984375q0 1.40625 -0.5 1.859375q-0.484375 0.453125 -1.8125 0.453125l-4.296875 0l0 -24.296875l-12.484377 -31.328127q-0.5 -1.328125 0.125 -1.78125q0.625 -0.453125 1.9375 -0.453125l3.562502 0zm55.543697 35.375l4.546875 12.3125l0.5 0l-1.328125 -12.5625l0 -32.890625q0 -1.328125 0.453125 -1.78125q0.453125 -0.453125 1.78125 -0.453125l4.375 0l0 55.625q0 1.328125 -0.453125 1.78125q-0.453125 0.453125 -1.78125 0.453125l-4.296875 0l-15.28125 -34.71875l-4.640625 -13.296877l-0.484375 0l1.234375 11.562502l0 34.21875q0 1.328125 -0.453125 1.78125q-0.453125 0.453125 -1.78125 0.453125l-4.375 0l0 -55.625q0 -1.328125 0.453125 -1.78125q0.453125 -0.453125 1.78125 -0.453125l4.453125 0l15.296875 35.375zm49.17417 -35.375l0 2.5625q0 1.328125 -0.453125 1.78125q-0.453125 0.453125 -1.765625 0.453125l-9.921883 0l0 50.828125q0 1.328125 -0.453125 1.78125q-0.453125 0.453125 -1.78125 0.453125l-4.375 0l0 -53.0625l-11.984375 0l0 -2.5625q0 -1.328125 0.453125 -1.78125q0.453125 -0.453125 1.765625 -0.453125l28.515633 0zm37.209015 0l0 55.625q0 1.328125 -0.46875 1.78125q-0.453125 0.453125 -1.765625 0.453125l-4.390625 0l0 -55.625q0 -1.328125 0.453125 -1.78125q0.46875 -0.453125 1.78125 -0.453125l4.390625 0zm-22.65625 30.250002l0 25.375q0 1.328125 -0.453125 1.78125q-0.453125 0.453125 -1.78125 0.453125l-4.375 0l0 -55.625q0 -1.328125 0.453125 -1.78125q0.453125 -0.453125 1.78125 -0.453125l4.375 0l0 25.453127l12.734375 0l0 2.5625q0 1.328125 -0.375 1.78125q-0.375 0.453125 -1.703125 0.453125l-10.65625 0zm41.162766 0l0 22.8125l15.78125 0l0 2.5625q0 1.328125 -0.453125 1.78125q-0.453125 0.453125 -1.765625 0.453125l-20.171875 0l0 -55.625q0 -1.328125 0.453125 -1.78125q0.453125 -0.453125 1.78125 -0.453125l20.15625 0l0 2.5625q0 1.328125 -0.375 1.78125q-0.359375 0.453125 -1.6875 0.453125l-13.71875 0l0 20.656252l13.3125 0l0 2.5625q0 1.328125 -0.375 1.78125q-0.375 0.453125 -1.6875 0.453125l-11.25 0zm52.481384 -30.250002l0 2.5625q0 1.328125 -0.453125 1.78125q-0.453125 0.453125 -1.765625 0.453125l-9.92189 0l0 50.828125q0 1.328125 -0.453125 1.78125q-0.453125 0.453125 -1.78125 0.453125l-4.375 0l0 -53.0625l-11.984375 0l0 -2.5625q0 -1.328125 0.453125 -1.78125q0.453125 -0.453125 1.765625 -0.453125l28.51564 0zm14.552734 0l0 55.625q0 1.328125 -0.453125 1.78125q-0.453125 0.453125 -1.78125 0.453125l-4.375 0l0 -55.625q0 -1.328125 0.453125 -1.78125q0.453125 -0.453125 1.78125 -0.453125l4.375 0zm19.59314 57.859375q-4.296875 0 -6.078125 -1.765625q-1.78125 -1.78125 -1.78125 -6.09375l0 -42.140625q0 -4.3125 1.78125 -6.078125q1.78125 -1.78125 6.078125 -1.78125l10.65625 0q2.40625 0 3.4375 1.203125q1.03125 1.1875 1.53125 3.59375l-12.984375 0q-2.5625 0 -3.234375 1.078125q-0.65625 1.0625 -0.65625 3.625l0 38.859375q0 2.5625 0.65625 3.640625q0.671875 1.0625 3.234375 1.0625l12.984375 0l0 2.5625q0 1.328125 -0.375 1.78125q-0.375 0.453125 -1.703125 0.453125l-13.546875 0z" fill-rule="nonzero"/><path fill="#010000" fill-opacity="0.0" d="m300.95312 3.9445937l56.950073 0l0 95.302536l-56.950073 0l0 -95.302536z" fill-rule="nonzero"/><path fill="#3c78d8" d="m318.89062 78.58309q-1.328125 0 -1.703125 -0.453125q-0.359375 -0.453125 -0.359375 -1.78125l0 -2.5625l6.359375 0q2.5625 0 3.21875 -1.0625q0.671875 -1.078125 0.671875 -3.640625l0 -13.390625q0 -2.5625 -0.671875 -3.640625q-0.65625 -1.078125 -3.21875 -1.078125l-9.671875 0l0 27.609375l-6.609375 0l0 -55.625q0 -1.328125 0.453125 -1.78125q0.453125 -0.453125 1.78125 -0.453125l16.6875 0q4.296875 0 6.078125 1.78125q1.78125 1.765625 1.78125 6.078125l0 12.062502q0 6.359375 -4.546875 7.4375l0 0.171875q2.390625 0.65625 3.46875 2.390625q1.078125 1.734375 1.078125 5.046875l0 15.03125q0 4.3125 -1.78125 6.09375q-1.78125 1.765625 -6.078125 1.765625l-6.9375 0zm-5.375 -53.0625l0 20.656252l10.171875 0q2.140625 -0.078125 2.765625 -1.1875q0.625 -1.125 0.625 -3.515625l0 -11.250002q0 -2.5625 -0.671875 -3.625q-0.65625 -1.078125 -3.21875 -1.078125l-9.671875 0zm38.43512 -4.796875l0 55.625q0 1.328125 -0.453125 1.78125q-0.453125 0.453125 -1.78125 0.453125l-4.375 0l0 -55.625q0 -1.328125 0.453125 -1.78125q0.453125 -0.453125 1.78125 -0.453125l4.375 0z" fill-rule="nonzero"/><path fill="#000000" fill-opacity="0.0" d="m357.9032 3.9445937l185.14972 0l0 95.302536l-185.14972 0l0 -95.302536z" fill-rule="nonzero"/><path fill="#3c78d8" d="m370.29382 69.08309q0 2.5625 0.65625 3.640625q0.671875 1.0625 3.234375 1.0625l7.4375 0q2.5625 0 3.21875 -1.0625q0.671875 -1.078125 0.671875 -3.640625l0 -38.859375q0 -2.5625 -0.671875 -3.625q-0.65625 -1.078125 -3.21875 -1.078125l-7.4375 0q-2.5625 0 -3.234375 1.078125q-0.65625 1.0625 -0.65625 3.625l0 38.859375zm-6.609375 -40.5q0 -4.3125 1.78125 -6.078125q1.78125 -1.78125 6.078125 -1.78125l12.734375 0q4.296875 0 6.0625 1.78125q1.78125 1.765625 1.78125 6.078125l0 42.140625q0 4.3125 -1.78125 6.09375q-1.765625 1.765625 -6.0625 1.765625l-12.734375 0q-4.296875 0 -6.078125 -1.765625q-1.78125 -1.78125 -1.78125 -6.09375l0 -42.140625zm40.17743 50.0l0 -55.625q0 -1.328125 0.453125 -1.78125q0.453125 -0.453125 1.78125 -0.453125l4.375 0l0 53.0625l17.4375 0l0 2.5625q0 1.328125 -0.453125 1.78125q-0.453125 0.453125 -1.78125 0.453125l-21.8125 0zm38.508118 -9.5q0 2.5625 0.65625 3.640625q0.671875 1.0625 3.234375 1.0625l7.4375 0q2.5625 0 3.21875 -1.0625q0.671875 -1.078125 0.671875 -3.640625l0 -38.859375q0 -2.5625 -0.671875 -3.625q-0.65625 -1.078125 -3.21875 -1.078125l-7.4375 0q-2.5625 0 -3.234375 1.078125q-0.65625 1.0625 -0.65625 3.625l0 38.859375zm-6.609375 -40.5q0 -4.3125 1.78125 -6.078125q1.78125 -1.78125 6.078125 -1.78125l12.734375 0q4.296875 0 6.0625 1.78125q1.78125 1.765625 1.78125 6.078125l0 42.140625q0 4.3125 -1.78125 6.09375q-1.765625 1.765625 -6.0625 1.765625l-12.734375 0q-4.296875 0 -6.078125 -1.765625q-1.78125 -1.78125 -1.78125 -6.09375l0 -42.140625zm47.86493 50.0q-4.296875 0 -6.078125 -1.765625q-1.78125 -1.78125 -1.78125 -6.09375l0 -42.140625q0 -4.3125 1.78125 -6.078125q1.78125 -1.78125 6.078125 -1.78125l16.109375 0q1.328125 0 1.703125 0.453125q0.375 0.453125 0.375 1.78125l0 2.5625l-15.546875 0q-2.5625 0 -3.234375 1.078125q-0.65625 1.0625 -0.65625 3.625l0 38.859375q0 2.5625 0.65625 3.640625q0.671875 1.0625 3.234375 1.0625l6.609375 0q2.5625 0 3.21875 -1.0625q0.671875 -1.078125 0.671875 -3.640625l0 -18.109375l-7.109375 0l0 -2.5625q0 -1.3125 0.453125 -1.765625q0.453125 -0.46875 1.78125 -0.46875l11.484375 0l0 24.546875q0 4.3125 -1.828125 6.09375q-1.8125 1.765625 -6.109375 1.765625l-11.8125 0zm31.821167 -57.859375l7.1875 18.437502l3.140625 9.75l0.5 0l3.0625 -9.75l6.109375 -16.203127q0.421875 -1.25 1.0 -1.734375q0.578125 -0.5 1.984375 -0.5l3.71875 0l-13.234375 33.5625l0 21.984375q0 1.40625 -0.5 1.859375q-0.484375 0.453125 -1.8125 0.453125l-4.296875 0l0 -24.296875l-12.484375 -31.328127q-0.5 -1.328125 0.125 -1.78125q0.625 -0.453125 1.9375 -0.453125l3.5625 0z" fill-rule="nonzero"/><path fill="#010000" fill-opacity="0.0" d="m543.0529 3.9445937l328.97144 0l0 95.302536l-328.97144 0l0 -95.302536z" fill-rule="nonzero"/><path fill="#999999" d="m556.69354 78.58309q-4.296875 0 -6.078125 -1.765625q-1.78125 -1.78125 -1.78125 -6.09375l0 -42.140625q0 -4.3125 1.78125 -6.078125q1.78125 -1.78125 6.078125 -1.78125l10.65625 0q2.40625 0 3.4375 1.203125q1.03125 1.1875 1.53125 3.59375l-12.984375 0q-2.5625 0 -3.234375 1.078125q-0.65625 1.0625 -0.65625 3.625l0 38.859375q0 2.5625 0.65625 3.640625q0.671875 1.0625 3.234375 1.0625l12.984375 0l0 2.5625q0 1.328125 -0.375 1.78125q-0.375 0.453125 -1.703125 0.453125l-13.546875 0zm30.9859 -9.5q0 2.5625 0.65625 3.640625q0.671875 1.0625 3.234375 1.0625l7.4375 0q2.5625 0 3.21875 -1.0625q0.671875 -1.078125 0.671875 -3.640625l0 -38.859375q0 -2.5625 -0.671875 -3.625q-0.65625 -1.078125 -3.21875 -1.078125l-7.4375 0q-2.5625 0 -3.234375 1.078125q-0.65625 1.0625 -0.65625 3.625l0 38.859375zm-6.609375 -40.5q0 -4.3125 1.78125 -6.078125q1.78125 -1.78125 6.078125 -1.78125l12.734375 0q4.296875 0 6.0625 1.78125q1.78125 1.765625 1.78125 6.078125l0 42.140625q0 4.3125 -1.78125 6.09375q-1.765625 1.765625 -6.0625 1.765625l-12.734375 0q-4.296875 0 -6.078125 -1.765625q-1.78125 -1.78125 -1.78125 -6.09375l0 -42.140625zm63.23993 29.921877q-0.578125 1.234375 -1.125 1.734375q-0.53125 0.484375 -1.609375 0.484375l-2.640625 0l-11.484375 -30.250002l-0.5 0l0.65625 10.000002l0.421875 35.875q0 1.328125 -0.46875 1.78125q-0.453125 0.453125 -1.765625 0.453125l-4.546875 0l0 -55.625q0 -1.328125 0.453125 -1.78125q0.453125 -0.453125 1.78125 -0.453125l5.53125 0l10.578125 26.953127l1.828125 6.859375l0.484375 0l1.90625 -6.859375l10.421875 -24.718752q0.484375 -1.15625 1.140625 -1.6875q0.671875 -0.546875 1.90625 -0.546875l4.96875 0l0 55.625q0 1.328125 -0.453125 1.78125q-0.453125 0.453125 -1.78125 0.453125l-4.375 0l0 -38.109375l0.734375 -10.000002l-0.5 0l-11.5625 28.031252zm46.118713 -9.015625q2.5625 0 3.21875 -1.078125q0.671875 -1.078125 0.671875 -3.640625l0 -14.546877q0 -2.5625 -0.671875 -3.625q-0.65625 -1.078125 -3.21875 -1.078125l-9.671875 0l0 50.828125q0 1.328125 -0.453125 1.78125q-0.453125 0.453125 -1.78125 0.453125l-4.375 0l0 -55.625q0 -1.328125 0.453125 -1.78125q0.453125 -0.453125 1.78125 -0.453125l16.6875 0q4.296875 0 6.078125 1.78125q1.78125 1.765625 1.78125 6.078125l0 17.843752q0 4.296875 -1.78125 6.078125q-1.78125 1.78125 -6.078125 1.78125l-6.9375 0q-1.328125 0 -1.703125 -0.453125q-0.359375 -0.453125 -0.359375 -1.78125l0 -2.5625l6.359375 0zm27.110107 1.484375l0 25.375q0 1.328125 -0.453125 1.78125q-0.453125 0.453125 -1.78125 0.453125l-4.375 0l0 -50.0q0 -4.3125 1.765625 -6.078125q1.78125 -1.78125 6.078125 -1.78125l11.90625 0q4.296875 0 6.078125 1.78125q1.78125 1.765625 1.78125 6.078125l0 47.765625q0 1.328125 -0.453125 1.78125q-0.453125 0.453125 -1.78125 0.453125l-4.375 0l0 -48.359375q0 -2.390625 -0.625 -3.46875q-0.625 -1.078125 -2.765625 -1.234375l-7.609375 0q-2.234375 0.15625 -2.8125 1.234375q-0.578125 1.078125 -0.578125 3.46875l0 15.953127l11.078125 0l0 2.5625q0 1.328125 -0.375 1.78125q-0.375 0.453125 -1.6875 0.453125l-9.015625 0zm54.80194 5.125l4.546875 12.3125l0.5 0l-1.328125 -12.5625l0 -32.890625q0 -1.328125 0.453125 -1.78125q0.453125 -0.453125 1.78125 -0.453125l4.375 0l0 55.625q0 1.328125 -0.453125 1.78125q-0.453125 0.453125 -1.78125 0.453125l-4.296875 0l-15.28125 -34.71875l-4.640625 -13.296877l-0.484375 0l1.234375 11.562502l0 34.21875q0 1.328125 -0.453125 1.78125q-0.453125 0.453125 -1.78125 0.453125l-4.375 0l0 -55.625q0 -1.328125 0.453125 -1.78125q0.453125 -0.453125 1.78125 -0.453125l4.453125 0l15.296875 35.375zm28.84607 -35.375l0 55.625q0 1.328125 -0.453125 1.78125q-0.453125 0.453125 -1.78125 0.453125l-4.375 0l0 -55.625q0 -1.328125 0.453125 -1.78125q0.453125 -0.453125 1.78125 -0.453125l4.375 0zm18.515015 30.250002l0 22.8125l15.78125 0l0 2.5625q0 1.328125 -0.453125 1.78125q-0.453125 0.453125 -1.765625 0.453125l-20.171875 0l0 -55.625q0 -1.328125 0.453125 -1.78125q0.453125 -0.453125 1.78125 -0.453125l20.15625 0l0 2.5625q0 1.328125 -0.375 1.78125q-0.359375 0.453125 -1.6875 0.453125l-13.71875 0l0 20.656252l13.3125 0l0 2.5625q0 1.328125 -0.375 1.78125q-0.375 0.453125 -1.6875 0.453125l-11.25 0zm47.356323 19.75q0 4.3125 -1.78125 6.09375q-1.765625 1.765625 -6.0625 1.765625l-10.078125 0q-2.40625 0 -3.4375 -1.1875q-1.03125 -1.203125 -1.53125 -3.609375l12.40625 0q2.5625 0 3.21875 -1.0625q0.65625 -1.078125 0.65625 -3.640625l0 -13.390625q0 -2.5625 -0.703125 -3.640625q-0.703125 -1.078125 -3.515625 -1.078125l-4.203125 0q-4.296875 0 -6.078125 -1.765625q-1.78125 -1.78125 -1.78125 -6.078125l0 -14.546877q0 -4.3125 1.78125 -6.078125q1.78125 -1.78125 6.078125 -1.78125l9.828125 0q2.40625 0 3.4375 1.203125q1.03125 1.1875 1.53125 3.59375l-12.15625 0q-2.5625 0 -3.234375 1.078125q-0.65625 1.0625 -0.65625 3.625l0 11.250002q0 2.5625 0.65625 3.640625q0.671875 1.0625 3.234375 1.0625l4.546875 0q4.296875 0 6.0625 1.78125q1.78125 1.78125 1.78125 6.078125l0 16.6875z" fill-rule="nonzero"/><path fill="#000000" fill-opacity="0.0" d="m872.02435 -3.346689l0 0l0 103.32031l0 0l0 -103.32031z" fill-rule="nonzero"/><path fill="#000000" fill-opacity="0.0" d="m370.10294 84.75618l78.456696 0l0 42.015747l-78.456696 0z" fill-rule="evenodd"/></g></svg>