<svg version="1.1" viewBox="0.0 0.0 1500.0 500.0" fill="none" stroke="none" stroke-linecap="square" stroke-miterlimit="10" xmlns:xlink="http://www.w3.org/1999/xlink" xmlns="http://www.w3.org/2000/svg"><clipPath id="p.0"><path d="m0 0l1500.0 0l0 500.0l-1500.0 0l0 -500.0z" clip-rule="nonzero"/></clipPath><g clip-path="url(#p.0)"><path fill="#000000" fill-opacity="0.0" d="m0 0l1500.0 0l0 500.0l-1500.0 0z" fill-rule="evenodd"/><path fill="#000000" fill-opacity="0.0" d="m-4.2219002E-5 -0.106580295l1500.0089 0l0 499.92255l-1500.0089 0z" fill-rule="evenodd"/><path fill="#38761d" d="m156.42482 358.2159q-22.796875 0 -42.203117 -6.578125q-19.390625 -6.59375 -33.640625 -18.6875q-14.234375 -12.109375 -21.703121 -28.140625q-2.859375 -5.6875 -0.1875 -10.484375q2.671875 -4.8125 9.078121 -6.59375q4.984375 -1.4375 9.78125 1.0625q4.8125 2.484375 7.3125 7.46875q5.34375 10.328125 15.65625 18.515625q10.328125 8.1875 24.5625 12.640625q14.249992 4.453125 31.343742 4.453125q18.859375 0 33.453125 -6.234375q14.59375 -6.234375 22.953125 -18.15625q8.375 -11.921875 8.375 -29.015625q0 -21.71875 -16.015625 -37.375015q-16.015625 -15.671875 -50.203125 -19.9375q-41.640617 -4.984375 -65.14062 -25.8125q-23.5 -20.828125 -23.5 -51.078125q0 -21.71875 11.5625 -37.734375q11.578125 -16.03125 31.875 -24.75q20.296867 -8.71875 46.640617 -8.71875q19.578125 0 35.59375 6.234375q16.015625 6.21875 27.9375 16.375q11.9375 10.140625 19.40625 22.25q3.5625 5.6875 2.3125 11.03125q-1.234375 5.34375 -6.21875 8.1875q-5.34375 2.484375 -10.859375 0.71875q-5.515625 -1.78125 -8.375 -6.765625q-5.328125 -8.1875 -13.34375 -15.484375q-8.015625 -7.3125 -19.40625 -11.578125q-11.390625 -4.265625 -27.40625 -4.625q-28.124992 0 -45.218742 11.921875q-17.078125 11.921875 -17.078125 34.71875q0 12.09375 6.40625 22.25q6.40625 10.140625 21.171875 17.4375q14.781242 7.296875 39.703117 10.859375q44.5 6.40625 66.03125 27.234375q21.546875 20.828125 21.546875 54.281265q0 19.234375 -6.953125 34.1875q-6.9375 14.953125 -19.578125 25.09375q-12.640625 10.140625 -29.546875 15.484375q-16.90625 5.34375 -36.125 5.34375zm219.28886 -3.5625q-5.703125 0 -9.796875 -4.09375q-4.09375 -4.09375 -4.09375 -9.796875l0 -89.000015l-96.828125 -153.42188q-3.5625 -5.34375 -2.671875 -10.328125q0.890625 -4.984375 4.453125 -8.1875q3.5625 -3.203125 8.90625 -3.203125q4.265625 0 6.9375 1.78125q2.671875 1.78125 4.8125 4.984375l96.109375 154.85938l-14.953125 0l95.765625 -154.15625q2.5 -3.90625 5.515625 -5.6875q3.03125 -1.78125 7.296875 -1.78125q4.984375 0 8.359375 3.390625q3.390625 3.375 3.921875 8.359375q0.546875 4.984375 -2.65625 9.96875l-97.1875 153.42188l0 89.000015q0 5.703125 -4.09375 9.796875q-4.09375 4.09375 -9.796875 4.09375zm164.82855 0q-6.046875 0 -9.96875 -3.90625q-3.921875 -3.921875 -3.921875 -9.984375l0 -250.26564q0 -6.046875 3.921875 -9.953125q3.921875 -3.921875 9.96875 -3.921875q6.40625 0 10.671875 4.984375l170.17188 223.56252l0 -214.67189q0 -6.046875 3.90625 -9.953125q3.921875 -3.921875 9.984375 -3.921875q5.6875 0 9.78125 3.921875q4.09375 3.90625 4.09375 9.953125l0 250.26564q0 6.0625 -4.09375 9.984375q-4.09375 3.90625 -9.78125 3.90625q-2.84375 0 -5.703125 -1.0625q-2.84375 -1.078125 -4.625 -3.5625l-170.51562 -223.57814l0 214.31252q0 6.0625 -4.09375 9.984375q-4.09375 3.90625 -9.796875 3.90625zm295.4812 0q-6.765625 0 -11.21875 -3.734375q-4.453125 -3.734375 -4.453125 -10.15625l0 -250.26564q0 -6.046875 3.921875 -9.953125q3.921875 -3.921875 9.96875 -3.921875l86.5 0q21.375 0 38.640625 9.078125q17.265625 9.078125 27.40625 24.75q10.140625 15.65625 10.140625 36.296875q0 19.21875 -10.328125 34.171875q-10.3125 14.953125 -27.046875 22.796875q23.84375 6.40625 38.4375 24.03125q14.609375 17.609375 14.609375 44.67189q0 24.203125 -11.046875 42.71875q-11.03125 18.515625 -30.4375 29.015625q-19.390625 10.5 -44.3125 10.5l-90.78125 0zm12.109375 -26.703125l78.671875 0q17.078125 0 30.25 -6.765625q13.171875 -6.765625 20.640625 -19.21875q7.484375 -12.453125 7.484375 -29.546875q0 -16.015625 -7.484375 -27.937515q-7.46875 -11.9375 -20.640625 -18.515625q-13.171875 -6.59375 -30.25 -6.59375l-78.671875 0l0 108.57814zm0 -135.28127l72.609375 0q21.375 0 35.25 -12.09375q13.890625 -12.109375 13.890625 -33.828125q0 -21.359375 -13.890625 -32.390625q-13.875 -11.046875 -35.25 -11.046875l-72.609375 0l0 89.359375zm233.52942 161.98439q-6.046875 0 -9.96875 -3.90625q-3.921875 -3.921875 -3.921875 -9.984375l0 -250.26564q0 -6.046875 3.921875 -9.953125q3.921875 -3.921875 9.96875 -3.921875q6.046875 0 9.96875 3.921875q3.921875 3.90625 3.921875 9.953125l0 250.26564q0 6.0625 -3.921875 9.984375q-3.921875 3.90625 -9.96875 3.90625z" fill-rule="nonzero"/><path fill="#38761d" d="m1295.2552 358.2159q-30.96875 0 -56.953125 -10.671875q-25.984375 -10.6875 -45.03125 -29.90625q-19.046875 -19.234375 -29.546875 -45.21875q-10.5 -25.98439 -10.5 -56.968765q0 -30.609375 10.5 -56.59375q10.5 -25.984375 29.546875 -45.203125q19.046875 -19.234375 45.03125 -29.90625q25.984375 -10.6875 56.953125 -10.6875q30.625 0 56.609375 10.6875q25.984375 10.671875 45.203125 29.90625q19.234375 19.21875 29.734375 45.203125q10.5 25.984375 10.5 56.59375q0 30.984375 -10.5 56.968765q-10.5 25.984375 -29.734375 45.21875q-19.21875 19.21875 -45.203125 29.90625q-25.984375 10.671875 -56.609375 10.671875zm0 -26.34375q24.578125 0 45.578125 -8.71875q21.0 -8.734375 36.484375 -24.5625q15.484375 -15.84375 24.03125 -37.03125q8.546875 -21.187515 8.546875 -46.10939q0 -24.5625 -8.546875 -45.734375q-8.546875 -21.1875 -24.03125 -37.03125q-15.484375 -15.84375 -36.484375 -24.5625q-21.0 -8.71875 -45.578125 -8.71875q-24.90625 0 -45.921875 8.71875q-21.0 8.71875 -36.484375 24.5625q-15.484375 15.84375 -24.03125 37.03125q-8.546875 21.171875 -8.546875 45.734375q0 24.921875 8.546875 46.10939q8.546875 21.1875 24.03125 37.03125q15.484375 15.828125 36.484375 24.5625q21.015625 8.71875 45.921875 8.71875z" fill-rule="nonzero"/><path fill="#000000" fill-opacity="0.0" d="m1015.82416 170.84947l74.80463 0l0 265.01508l-74.80463 0z" fill-rule="evenodd"/><path fill="#000000" fill-opacity="0.0" d="m1009.25195 123.64796l74.80469 0l0 55.202217l-74.80469 0z" fill-rule="evenodd"/><path fill="#000000" fill-opacity="0.0" d="m767.2737 14.395278l749.44885 0l0 499.937l-749.44885 0z" fill-rule="evenodd"/><path fill="#93c47d" d="m853.9173 369.15524q-6.765625 0 -11.21875 -3.734375q-4.453125 -3.734375 -4.453125 -10.15625l0 -250.26561q0 -6.046875 3.921875 -9.953125q3.921875 -3.921875 9.96875 -3.921875l86.5 0q21.375 0 38.640625 9.078125q17.265625 9.078125 27.40625 24.75q10.140625 15.65625 10.140625 36.296875q0 19.21875 -10.328125 34.171875q-10.3125 14.953125 -27.046875 22.796875q23.84375 6.40625 38.4375 24.03125q14.609436 17.60936 14.609436 44.67186q0 24.203125 -11.046936 42.71875q-11.03125 18.515625 -30.4375 29.015625q-19.390625 10.5 -44.3125 10.5l-90.78125 0zm12.109375 -26.703125l78.671875 0q17.078125 0 30.25 -6.765625q13.171875 -6.765625 20.640625 -19.21875q7.484375 -12.453125 7.484375 -29.546875q0 -16.015625 -7.484375 -27.9375q-7.46875 -11.937485 -20.640625 -18.51561q-13.171875 -6.59375 -30.25 -6.59375l-78.671875 0l0 108.57811zm0 -135.28123l72.609375 0q21.375 0 35.25 -12.09375q13.890625 -12.109375 13.890625 -33.828125q0 -21.359375 -13.890625 -32.390625q-13.875 -11.046875 -35.25 -11.046875l-72.609375 0l0 89.359375zm233.52936 161.98436q-6.046875 0 -9.96875 -3.90625q-3.921875 -3.921875 -3.921875 -9.984375l0 -250.26561q0 -6.046875 3.921875 -9.953125q3.921875 -3.921875 9.96875 -3.921875q6.046875 0 9.96875 3.921875q3.921875 3.90625 3.921875 9.953125l0 250.26561q0 6.0625 -3.921875 9.984375q-3.921875 3.90625 -9.96875 3.90625zm213.59302 3.5625q-30.96875 0 -56.953125 -10.671875q-25.984375 -10.6875 -45.03125 -29.90625q-19.046875 -19.234375 -29.546875 -45.21875q-10.5 -25.984375 -10.5 -56.968735q0 -30.609375 10.5 -56.59375q10.5 -25.984375 29.546875 -45.203125q19.046875 -19.234375 45.03125 -29.90625q25.984375 -10.6875 56.953125 -10.6875q30.625 0 56.609375 10.6875q25.984375 10.671875 45.203125 29.90625q19.234375 19.21875 29.734375 45.203125q10.5 25.984375 10.5 56.59375q0 30.98436 -10.5 56.968735q-10.5 25.984375 -29.734375 45.21875q-19.21875 19.21875 -45.203125 29.90625q-25.984375 10.671875 -56.609375 10.671875zm0 -26.34375q24.578125 0 45.578125 -8.71875q21.0 -8.734375 36.484375 -24.5625q15.484375 -15.84375 24.03125 -37.03125q8.546875 -21.187485 8.546875 -46.10936q0 -24.5625 -8.546875 -45.734375q-8.546875 -21.1875 -24.03125 -37.03125q-15.484375 -15.84375 -36.484375 -24.5625q-21.0 -8.71875 -45.578125 -8.71875q-24.90625 0 -45.921875 8.71875q-21.0 8.71875 -36.484375 24.5625q-15.484375 15.84375 -24.03125 37.03125q-8.546875 21.171875 -8.546875 45.734375q0 24.921875 8.546875 46.10936q8.546875 21.1875 24.03125 37.03125q15.484375 15.828125 36.484375 24.5625q21.015625 8.71875 45.921875 8.71875z" fill-rule="nonzero"/></g></svg>