<svg id="Layer_1" data-name="Layer 1" xmlns="http://www.w3.org/2000/svg" viewBox="0 0 720 720"><defs><style>.cls-1{fill:#1d65bf;}.cls-2{fill:#252b30;}</style></defs><path class="cls-1" d="M201,503.47l-83.67-24.26V106.53L201,130.79Zm-67.67-36.56L185,482.65V143.09l-51.67-15.75Z"/><path class="cls-1" d="M602.66,596.83,519,574.56V233.71L602.66,256ZM535,562l51.66,14.52V268.57L535,254.05Z"/><path class="cls-1" d="M401.83,504.6l-83.66-16.82V234.34l83.66,16.82Zm-67.66-30.24,51.66,11.16V264.57l-51.66-11.15Z"/><path class="cls-1" d="M418.58,473.89V220.45l83.67-16.82V457.07Zm16-240V454.81l51.67-11.15V222.71Z"/><path class="cls-1" d="M217.75,473.89V220.45l83.67-16.82V457.07Zm16-240V454.81l51.67-11.15V222.71Z"/><path class="cls-2" d="M117.22,555.86c0-19.8,10.62-32.85,26.82-32.85s26.9,13,26.9,32.85-10.71,32.85-26.9,32.85S117.22,575.66,117.22,555.86Zm44.45,0c0-15-6.66-24.21-17.63-24.21s-17.55,9.18-17.55,24.21,6.66,24.21,17.55,24.21S161.67,570.89,161.67,555.86Z"/><path class="cls-2" d="M190.3,555.86c0-19.8,10.62-32.85,26.81-32.85,13.14,0,22.68,8.73,24.39,22.14l-9.09,1.53c-1.71-9.81-6.93-15-15.3-15-10.89,0-17.55,9.18-17.55,24.21s6.57,24.21,17.55,24.21c8.82,0,14-5.58,15.3-16.38l9.27,1.35c-1.26,14.58-10.62,23.67-24.57,23.67C200.82,588.71,190.3,575.84,190.3,555.86Z"/><path class="cls-2" d="M278,533H258.78v-8.64h47.61V533H287.31v54.36H278Z"/><path class="cls-2" d="M352.83,575.57H325.92l-4.14,11.79h-9.36l22.68-63h8.64l22.59,63H357Zm-2.79-8.1-10.53-30.33h-.18l-10.62,30.33Z"/><path class="cls-2" d="M385.77,524.36H396l26.28,47.88h.18V524.36h9.27v63H421.5l-26.28-47.88H395v47.88h-9.27Z"/><path class="cls-2" d="M473.16,533H453.9v-8.64h47.61V533H482.43v54.36h-9.27Z"/></svg>