<svg version="1.1" viewBox="0.0 0.0 351.67979002624674 100.0" fill="none" stroke="none" stroke-linecap="square" stroke-miterlimit="10" xmlns:xlink="http://www.w3.org/1999/xlink" xmlns="http://www.w3.org/2000/svg"><clipPath id="p.0"><path d="m0 0l351.67978 0l0 100.0l-351.67978 0l0 -100.0z" clip-rule="nonzero"/></clipPath><g clip-path="url(#p.0)"><path fill="#000000" fill-opacity="0.0" d="m0 0l351.67978 0l0 100.0l-351.67978 0z" fill-rule="evenodd"/><path fill="#000000" fill-opacity="0.0" d="m0.001023622 -2.566929l353.82675 0l0 107.81103l-353.82675 0z" fill-rule="evenodd"/><path fill="#93c47d" d="m37.110397 80.621185q-5.296873 0 -9.812498 -1.53125q-4.5 -1.53125 -7.8125 -4.34375q-3.296875 -2.8125 -5.031251 -6.53125q-0.65625 -1.3125 -0.046875 -2.421875q0.625 -1.125 2.109376 -1.546875q1.15625 -0.3281212 2.265625 0.25q1.125 0.578125 1.703125 1.734375q1.25 2.40625 3.640625 4.3125q2.390625 1.890625 5.703125 2.921875q3.312498 1.03125 7.281248 1.03125q4.375 0 7.765625 -1.4375q3.390625 -1.453125 5.328125 -4.21875q1.9375 -2.765625 1.9375 -6.734371q0 -5.046875 -3.71875 -8.671875q-3.71875 -3.640625 -11.65625 -4.640625q-9.656248 -1.15625 -15.124998 -5.984375q-5.453125 -4.84375 -5.453125 -11.859375q0 -5.046875 2.6875 -8.765625q2.6875 -3.71875 7.390625 -5.734375q4.71875 -2.03125 10.843748 -2.03125q4.546875 0 8.265625 1.453125q3.71875 1.4375 6.484375 3.796875q2.765625 2.34375 4.5 5.15625q0.828125 1.328125 0.53125 2.5625q-0.28125 1.234375 -1.4375 1.90625q-1.234375 0.578125 -2.515625 0.171875q-1.28125 -0.421875 -1.953125 -1.578125q-1.234375 -1.90625 -3.09375 -3.59375q-1.859375 -1.703125 -4.515625 -2.6875q-2.640625 -1.0 -6.359375 -1.078125q-6.531248 0 -10.499998 2.78125q-3.953125 2.765625 -3.953125 8.046875q0 2.8125 1.484375 5.171875q1.484375 2.34375 4.90625 4.046875q3.437498 1.6875 9.218748 2.515625q10.34375 1.484375 15.34375 6.328125q5.0 4.828125 5.0 12.609375q0 4.453121 -1.625 7.937496q-1.609375 3.46875 -4.546875 5.828125q-2.921875 2.34375 -6.859375 3.59375q-3.921875 1.234375 -8.375 1.234375zm50.910248 -0.828125q-1.328125 0 -2.28125 -0.953125q-0.9375 -0.953125 -0.9375 -2.265625l0 -20.671871l-22.484375 -35.625q-0.828125 -1.234375 -0.625 -2.390625q0.203125 -1.15625 1.03125 -1.890625q0.828125 -0.75 2.0625 -0.75q1.0 0 1.609375 0.40625q0.625 0.40625 1.125 1.15625l22.3125 35.953125l-3.46875 0l22.234375 -35.78125q0.578125 -0.921875 1.28125 -1.328125q0.703125 -0.40625 1.703125 -0.40625q1.15625 0 1.9375 0.78125q0.78125 0.78125 0.90625 1.9375q0.125 1.15625 -0.625 2.3125l-22.5625 35.625l0 20.671871q0 1.3125 -0.953125 2.265625q-0.9375 0.953125 -2.265625 0.953125zm38.264313 0q-1.40625 0 -2.3125 -0.90625q-0.90625 -0.90625 -0.90625 -2.3125l0 -58.10937q0 -1.40625 0.90625 -2.3125q0.90625 -0.90625 2.3125 -0.90625q1.5 0 2.484375 1.15625l39.515625 51.906246l0 -49.843746q0 -1.40625 0.90625 -2.3125q0.90625 -0.90625 2.3125 -0.90625q1.328125 0 2.265625 0.90625q0.953125 0.90625 0.953125 2.3125l0 58.10937q0 1.40625 -0.953125 2.3125q-0.9375 0.90625 -2.265625 0.90625q-0.65625 0 -1.328125 -0.25q-0.65625 -0.25 -1.0625 -0.828125l-39.59375 -51.906246l0 49.76562q0 1.40625 -0.953125 2.3125q-0.953125 0.90625 -2.28125 0.90625z" fill-rule="nonzero"/><path fill="#38761d" d="m194.89815 79.79306q-1.578125 0 -2.609375 -0.859375q-1.03125 -0.875 -1.03125 -2.359375l0 -58.10937q0 -1.40625 0.90625 -2.3125q0.90625 -0.90625 2.3125 -0.90625l20.09375 0q4.953125 0 8.953125 2.109375q4.015625 2.09375 6.375 5.734375q2.359375 3.640625 2.359375 8.4375q0 4.453125 -2.40625 7.9375q-2.390625 3.46875 -6.28125 5.28125q5.546875 1.484375 8.9375 5.578125q3.390625 4.09375 3.390625 10.375q0 5.624996 -2.5625 9.921871q-2.5625 4.296875 -7.078125 6.734375q-4.5 2.4375 -10.28125 2.4375l-21.078125 0zm2.8125 -6.203125l18.265625 0q3.96875 0 7.015625 -1.5625q3.0625 -1.578125 4.796875 -4.46875q1.734375 -2.890625 1.734375 -6.859371q0 -3.71875 -1.734375 -6.484375q-1.734375 -2.765625 -4.796875 -4.296875q-3.046875 -1.53125 -7.015625 -1.53125l-18.265625 0l0 25.203121zm0 -31.406246l16.859375 0q4.953125 0 8.171875 -2.8125q3.234375 -2.8125 3.234375 -7.84375q0 -4.96875 -3.234375 -7.53125q-3.21875 -2.5625 -8.171875 -2.5625l-16.859375 0l0 20.75z" fill-rule="nonzero"/><path fill="#93c47d" d="m302.76556 80.621185q-7.203125 0 -13.234375 -2.46875q-6.03125 -2.484375 -10.453125 -6.953125q-4.421875 -4.46875 -6.859375 -10.499996q-2.4375 -6.03125 -2.4375 -13.21875q0 -7.109375 2.4375 -13.140625q2.4375 -6.046875 6.859375 -10.5q4.421875 -4.46875 10.453125 -6.9375q6.03125 -2.484375 13.234375 -2.484375q7.109375 0 13.140625 2.484375q6.03125 2.46875 10.484375 6.9375q4.46875 4.453125 6.90625 10.5q2.4375 6.03125 2.4375 13.140625q0 7.1875 -2.4375 13.21875q-2.4375 6.031246 -6.90625 10.499996q-4.453125 4.46875 -10.484375 6.953125q-6.03125 2.46875 -13.140625 2.46875zm0 -6.125q5.703125 0 10.578125 -2.015625q4.875 -2.03125 8.46875 -5.703125q3.59375 -3.6874962 5.578125 -8.593746q1.984375 -4.921875 1.984375 -10.703125q0 -5.703125 -1.984375 -10.625q-1.984375 -4.921875 -5.578125 -8.59375q-3.59375 -3.6875 -8.46875 -5.703125q-4.875 -2.03125 -10.578125 -2.03125q-5.796875 0 -10.671875 2.03125q-4.875 2.015625 -8.46875 5.703125q-3.59375 3.671875 -5.578125 8.59375q-1.984375 4.921875 -1.984375 10.625q0 5.78125 1.984375 10.703125q1.984375 4.90625 5.578125 8.593746q3.59375 3.671875 8.46875 5.703125q4.875 2.015625 10.671875 2.015625z" fill-rule="nonzero"/><path fill="#000000" fill-opacity="0.0" d="m235.54199 35.494778l19.748032 0l0 64.62993l-19.748032 0z" fill-rule="evenodd"/><path fill="#38761d" d="m262.417 50.81915l-5.59375 18.828129l0 10.6875l-7.109375 0l0 -10.6875l-5.390625 -18.828129l7.046875 0q1.671875 8.625 1.859375 11.609375q0.640625 -4.71875 2.140625 -11.609375l7.046875 0z" fill-rule="nonzero"/><path fill="#000000" fill-opacity="0.0" d="m234.53871 8.245562l19.748032 0l0 46.960632l-19.748032 0z" fill-rule="evenodd"/><path fill="#38761d" d="m261.8356 16.232752l0 19.015623q0 3.234375 -0.21875 4.546875q-0.203125 1.296875 -1.25 2.6875q-1.03125 1.375 -2.734375 2.09375q-1.6875153 0.703125 -3.9843903 0.703125q-2.546875 0 -4.5 -0.84375q-1.953125 -0.84375 -2.921875 -2.1875q-0.96875 -1.359375 -1.140625 -2.859375q-0.171875 -1.5 -0.171875 -6.328125l0 -16.828123l7.390625 0l0 21.328123q0 1.875 0.203125 2.390625q0.203125 0.515625 0.828125 0.515625q0.703125 0 0.90625 -0.5625q0.203125 -0.578125 0.203125 -2.703125l0 -20.968748l7.3906403 0z" fill-rule="nonzero"/></g></svg>